<?xml version="1.0" encoding="UTF-8"?>
<svg version="1.1" viewBox="0 0 2048 1624" width="643" height="510" xmlns="http://www.w3.org/2000/svg">
<path transform="translate(0)" d="m0 0h2048v1624h-2048z" fill="#07B7CC"/>
<path transform="translate(1e3 388)" d="m0 0h26l15 3 12 5 11 8 8 9 8 14 5 12 5 23 2 18v10l-10 9-9 14-7 16-5 21-3 19-1 13-1 82-2 27-4 29-5 19-6 17-8 16-8 15-16 24-10 14-13 18-10 19-5 16-1 5v14l5 16 8 11 5 5h4l4-9 4-6 7-6 10-4h16l10 5 7 6 5 8 3 10 11-3 20-9 22-12 24-16 17-12 4 1 7 15 5 17 2 13v16l-3 14-5 12-10 14-8 7-10 6-14 5-5 1h-25l-22-5-18-6-20-9-1 78h375l-1-18 1-1h34l8 1 1 1v41l-6 1-11 1-1 6v182l17 1 1 1 1 41-1 1h-43l-1-17-54-1-7-1-1-3-191 1-96-1v3l-7 1h-84l-5-1-7 1h-82l-6-1-3 1h-183l-28-1-4-1v20h-44v-7l1-4v-11l-1-21 15-1 5-1-1-1v-80l-1-105-2-1-16-1 1-43h42l1 9v9l115-1h262v-80l-3-3-14-8-19-14-12-9-14-11-13-12-8-7-13-13-8-7-12-13-14-15-12-14-8-10-7-8-4-6-14-19-11-16-10-15-12-19-12-20-17-32-14-28-11-25-11-27-6-20-3-16-1-7v-28l4-18 6-16 8-16 9-13 12-14 9-9 14-11 16-12 18-11 24-12 32-13 27-9 28-7 36-6z" fill="#07B6CB"/>
<path transform="translate(1e3 388)" d="m0 0h26l15 3 12 5 11 8 8 9 8 14 5 12 5 23 2 18v10l-10 9-9 14-7 16-5 21-3 19-1 13-1 82-2 27-4 29-5 19-6 17-8 16-8 15-16 24-10 14-13 18-10 19-5 16-1 5v14l5 16 8 11 5 5 3 1 1 2 2 15 5 9 9 8 10 4 7 1 1 1 1 92-7-1 2-2v-80l-3-3-14-8-19-14-12-9-14-11-13-12-8-7-13-13-8-7-12-13-14-15-12-14-8-10-7-8-4-6-14-19-11-16-10-15-12-19-12-20-17-32-14-28-11-25-11-27-6-20-3-16-1-7v-28l4-18 6-16 8-16 9-13 12-14 9-9 14-11 16-12 18-11 24-12 32-13 27-9 28-7 36-6z" fill="#FDFDFD"/>
<path transform="translate(1118,485)" d="m0 0h18l21 4 27 8 22 8 26 12 22 12 16 12 11 9 13 12 8 9 9 13 8 16 5 17 2 11v20l-3 15-6 17-8 17-14 24-15 24-13 19-13 17-10 13-13 15-12 13-7 8-27 27-11 9-13 11-4 2-11-18-10-13-13-18-10-18-10-23-9-27-5-23-3-23-1-15v-36l2-30 8-75 2-25 2-45 8-3z" fill="#FDFDFD"/>
<path transform="translate(1155,881)" d="m0 0 4 1 7 15 5 17 2 13v16l-3 14-5 12-10 14-8 7-10 6-14 5-5 1h-25l-22-5-18-6-20-9-1 78h375l-1-18 1-1h34l8 1 1 1v41l-6 1-11 1-1 6v182l17 1 1 1 1 41-1 1h-43l-1-17-54-1-7-1-1-3-191 1-96-1v3l-7 1h-84l-5-1-7 1h-82l-6-1-3 1h-183l-28-1-4-1v20h-44v-7l1-4v-11l-1-21 15-1h15l14 1 1 2v17h408v-6h1v6l95-1 253 1v-19l23-1-1-4v-184l-21-1-1-19-157-1v2h-2v-2l-93 1-1 22h-1v-23h-94l-1 3-1-2-93-1v2l-6-1-90-1v5l-2-4h-92-4l-92-1-1 3-1-2-27-1v20l-10 1h-12l1 55v97l-1 35-3-1v-80l-1-105-2-1-16-1 1-43h42l1 9v9l115-1 260 1 6 1-1-91-10-2-10-5-8-8-4-8-1-4v-14l4-9 4-6 7-6 10-4h16l10 5 7 6 5 8 3 10 11-3 20-9 22-12 24-16z" fill="#F6F5F3"/>
<path transform="translate(1011,195)" d="m0 0h8l12 3 12 7 11 11 8 13 6 14 4 13 3 16 1 9v19l-4 22-6 16-6 10-7 8-10 6-14 4h-8l-14-3-11-6-9-8-9-14-7-17-5-21-1-10v-29l3-16 6-16 8-13 10-10 10-6z" fill="#FDFDFD"/>
<path transform="translate(0)" d="m0 0h9v1624h-9z" fill="#E3DFD9"/>
<path transform="translate(889,239)" d="m0 0h10l13 4 12 8 12 12 9 14 7 15 5 17 2 11v24l-5 13-6 9-9 8-10 4-4 1h-14l-11-4-11-8-10-11-9-15-8-20-4-17v-29l4-13 8-13 11-8z" fill="#FDFDFD"/>
<path transform="translate(1155,881)" d="m0 0 4 1 7 15 5 17 2 13v16l-3 14-5 12-10 14-8 7-10 6-14 5-5 1h-25l-22-5-18-6-20-9-1-2v-11l11-4 9-7 6-10 2-14 6-2 13-5 16-8 19-10 24-16z" fill="#FDFDFD"/>
<path transform="translate(801,288)" d="m0 0h8l10 3 11 6 10 9 10 14 8 18 5 19 1 9v13l-2 10-5 10-8 9-11 6-4 1h-10l-13-4-9-6-10-11-7-11-8-18-4-15-1-9v-16l3-14 6-11 7-7 8-4z" fill="#FDFDFD"/>
<path transform="translate(1141,341)" d="m0 0h14l12 6 8 9 5 10 4 16v21l-3 16-5 15-7 13-9 11-9 6-12 4h-8l-14-5-10-9-6-13-2-9v-26l4-21 7-16 7-11 9-9 10-6z" fill="#FDFDFD"/>
<path transform="translate(1245,1136)" d="m0 0 13 1 12 5 10 9 6 9 4 12 1 6v26l-4 15-6 12-8 8-10 6-10 2h-9l-13-4-10-7-7-10-5-13-2-11v-22l4-16 4-8 7-9 6-5 8-4z" fill="#FDFDFD"/>
<path transform="translate(723,352)" d="m0 0 12 1 13 5 11 8 8 8 11 15 7 16 3 12v17l-4 10-6 8-9 6-4 1h-11l-14-5-12-9-9-9-10-15-7-16-3-14v-12l2-9 6-9 7-6z" fill="#FDFDFD"/>
<path transform="translate(1338,1088)" d="m0 0h15l10 5 7 8 2 11 10-4 9-4h5l1 1v34l14 1-1 4-13 2v50l1 37 5 5h8v-13l2-2h8l3 3v8l-4 5-7 4h-15l-7-4-7-8-4-11-1-10v-65l-14-1v-4l14-1-1-22-8 2-8 4-7-1-5-5-1-6 2-7 2-4v-6l-3-1h-9l-3 3-2 6-1 37 16 1 1 2-3 3h-14l1 90 11 3-1 5-42-1 1-4 10-3 1-2v-87l-11-2v-4l12-1v-18l1-12 4-9 7-8 5-3z" fill="#FDFDFD"/>
<path transform="translate(1235,383)" d="m0 0 9 1 8 4 7 8 4 12v18l-4 16-8 16-7 11-9 9-12 7-6 2h-9l-13-5-7-7-5-13v-16l5-19 8-16 8-11 10-9 8-5 6-2z" fill="#FDFDFD"/>
<path transform="translate(672,433)" d="m0 0h11l15 4 16 9 12 11 9 11 5 11 2 8-1 9-5 10-5 5-8 5-4 1h-11l-12-4-17-9-14-13-7-10-5-10-2-6v-13l3-8 9-8z" fill="#FDFDFD"/>
<path transform="translate(1294,428)" d="m0 0h11l8 4 7 8 3 8 1 7v9l-4 16-8 17-11 14-8 6-9 4h-12l-7-3-8-7-5-10-1-6v-9l3-14 5-12 8-14 10-10 10-6z" fill="#FDFDFD"/>
<path transform="translate(884,1137)" d="m0 0h14l6 4 5 6 3 8 1 78 2 4 9 3 1 3-2 1h-39l-3-1 1-3 10-4 2-7v-19l-1-52-4-8-4-3h-7l-12 5-9 6v77l1 2 9 2 1 5h-39l-3-1v-3l10-4h2v-60l-1-23h-9v-4l10-4 13-5h5l1 9 5-2 16-8z" fill="#FDFDFD"/>
<path transform="translate(1348,482)" d="m0 0h10l8 4 6 8 2 5v10l-3 12-7 13-8 10-10 9-9 5-8 2h-8l-10-5-6-8-2-7v-7l4-14 7-12 8-10 8-7 12-6z" fill="#FDFDFD"/>
<path transform="translate(1242,1141)" d="m0 0h8l6 4 6 8 5 12 4 19 1 10v17l-2 14-4 9-8 7-9 1-6-3-6-7-5-12-4-15-2-16v-17l2-11 4-11 7-8z" fill="#07B7CC"/>
<path transform="translate(605,1042)" d="m0 0h42l1 9v9l115-1 260 1 6 2v1h-380l-1 22-10 1h-12l1 55v97l-1 35-3-1v-80l-1-105-2-1-16-1z" fill="#E3DFD9"/>
<path transform="translate(619,1274)" d="m0 0h15l14 1 1 2v18l1 1h407v3l-7 1h-84l-5-1-7 1h-82l-6-1-3 1h-183l-28-1-4-1v20h-44v-7l1-4v-11l-1-21z" fill="#E3DFD9"/>
<path transform="translate(1148,1136)" d="m0 0h11l12 4 6-1 7-1 1 22v14h-3l-4-10-7-14-7-7-10-3-9 3-4 6v9l5 9 10 10 17 13 9 8 7 10 2 7-1 10-3 8-6 7-8 5-7 2h-13l-13-4h-6l-5 3-4-1 1-44 4 2 6 21 5 10 5 5 9 3 10-1 6-4 3-5v-8l-3-6-9-10-13-10-10-8-8-9-4-7-1-4v-10l4-11 7-8 8-4z" fill="#FDFDFD"/>
<path transform="translate(1374,548)" d="m0 0h16l8 4 5 6 1 2v10l-4 9-7 10-8 7-17 9-6 2h-9l-9-3-8-7-3-9 1-8 5-10 12-12 10-6z" fill="#FDFDFD"/>
<path transform="translate(1024,906)" d="m0 0h10l9 3 6 4 7 11 2 7-1 13-4 9-7 8-9 5-4 1h-10l-13-5-7-7-5-10-1-12 2-9 6-9 6-5z" fill="#FCFBFB"/>
<path transform="translate(1027,1136)" d="m0 0h11l11 4 8 7 4 8v8l-4 6-4 3h-7l-5-3-2-3v-11l3-7-1-5-2-2h-10l-6 3-6 7-5 13-2 15v19l3 17 5 14 6 8 5 3h10l6-3 3-3h2l2-4 5-11 3-13 5 1-1 10-5 13-7 9-8 6-8 2-13-1-12-4-8-6-7-9-4-10-3-17v-16l3-17 6-12 7-9 9-6z" fill="#FDFDFD"/>
<path transform="translate(673,1136)" d="m0 0h10l10 3 8 6 4 5 1 2v12l-4 6-3 2h-7l-5-3-2-3-1-6 4-13-1-4-4-2h-7l-9 4-6 10-3 8-2 13v23l3 17 5 14 5 6v2l5 2h11l8-5 6-7 5-14 2-7 5-1 1 3-5 17-5 8-7 8-8 4-5 1h-10l-12-4-10-6-7-8-5-13-2-9v-31l4-14 6-10 9-9 10-5z" fill="#FDFDFD"/>
<path transform="translate(745,1094)" d="m0 0h6v107l1 35 9 3 2 1-1 4h-40l-2-1v-3l10-3 2-2v-127l-9 1-1-4 16-8z" fill="#FDFDFD"/>
<path transform="translate(1020,904)" d="m0 0h16l10 5 7 6 5 8 2 6v15l-3 8-7 9-9 6-5 2h-4v94h374l-1 3-156-1v2h-2v-2l-93 1-1 22h-1v-23h-94l-1 3-1-2-93-1v2l-6-1-90-1v5l-2-4h-92-4l-92-1-1 3-1-2-27-1 1-3h380l-1-92-10-2-10-5-8-8-4-8-1-4v-14l4-9 4-6 7-6zm4 2-13 4-8 7-5 10-1 10 2 11 6 9 7 6 11 4h10l10-4 8-7 5-9 2-10-1-11-6-10-4-5-8-4-5-1z" fill="#477C85"/>
<path transform="translate(961,1140)" d="m0 0h4l1 94 1 3 10 2 1 4-1 1h-40l-3-3 2-2 9-3 2-7-1-73h-9l-1-2 4-4z" fill="#FCFCFC"/>
<path transform="translate(799,1140)" d="m0 0h4l1 97 10 2 2 4-2 1h-41v-5l9-2 3-4v-47l-1-30h-9v-4l16-8z" fill="#FDFDFD"/>
<path transform="translate(1057,1288)" d="m0 0h1v6l95-1 253 1v2l-253 1h-504v-3h408z" fill="#487C84"/>
<path transform="translate(608,1278)" d="m0 0h36l1 1v36h-37l-1-15v-21z" fill="#477D85"/>
<path transform="translate(1410,1278)" d="m0 0h36l1 1v36h-37z" fill="#497C84"/>
<path transform="translate(1410,1045)" d="m0 0h37v36l-3 1h-33l-1-1z" fill="#477D85"/>
<path transform="translate(608,1045)" d="m0 0h36l1 4v32l-1 1h-35l-1-1z" fill="#477D85"/>
<path transform="translate(1059,1296)" d="m0 0h282v3l-6 1h-80l-8-1-1 1h-87l-7-1-2 1h-89l-3-1z" fill="#E3DFD9"/>
<path transform="translate(1032,1060)" d="m0 0h327l4 1h31l12 1v1h-374z" fill="#E3DFD9"/>
<path transform="translate(868,1296)" d="m0 0h189v3l-7 1h-84l-5-1-7 1h-82l-5-1z" fill="#E3DFD9"/>
<path transform="translate(622,1086)" d="m0 0h4l1 55v97l-1 35-3-1v-80z" fill="#E3DFD9"/>
<path transform="translate(1407,1041)" d="m0 0h34l8 1 1 1v41l-6 1-11 1-4 1-4-1-18-1-1-23h-43l-4-2h48l-1-18zm3 4v36l1 1h33l3-1v-36z" fill="#FBFBFA"/>
<path transform="translate(1428,1086)" d="m0 0h4l-1 173h-1l-1 11h-1z" fill="#E3DFD9"/>
<path transform="translate(605,1042)" d="m0 0h42l1 9v34l-10 1h-18l-16-1zm3 3v36l1 1h35l1-1v-35l-1-1z" fill="#FAFAF9"/>
<path transform="translate(619,1274)" d="m0 0h15l14 1 1 2-1 41h-44v-7l1-4v-11l-1-21zm-11 4-1 1v27l1 9h37v-36l-1-1z" fill="#E8E5E0"/>
<path transform="translate(1014,919)" d="m0 0 2 1v4l8-4 10 1 7 5 2 4 1 7-3 9-6 5-5 2-8-1-5-3-4-6v-3l5 2 1 3 3 1h10l5-4 1-7-3-7-4-2-9 1-1 1 5 3-1 3-2 1-10-1-2-2v-9l1-3z" fill="#42818A"/>
<path transform="translate(626,1087)" d="m0 0h2l1 54v133h-3z" fill="#438089"/>
<path transform="translate(954,1095)" d="m0 0 7 1 5 5 2 3-1 7-4 5-3 2h-8l-6-5-2-4 1-6 6-7z" fill="#FDFDFC"/>
<path transform="translate(792,1095)" d="m0 0 7 1 5 5 2 3-1 7-4 5-4 2-9-1-5-6v-8l6-7z" fill="#FDFDFD"/>
<path transform="translate(1426,1086)" d="m0 0h2l1 188-4-1z" fill="#487C84"/>
<path transform="translate(1344,1296)" d="m0 0h62v4h-54l-7-1z" fill="#E3DFD9"/>
<path transform="translate(605,1042)" d="m0 0h34l6 2-1 2-36-1v36l-3-1z" fill="#E3DFD9"/>
<path transform="translate(619,1274)" d="m0 0h15l14 1 1 2-1 33-1 6-2-1-1-38h-34l4-2z" fill="#FCFCFC"/>
<path transform="translate(1447,1280)" d="m0 0h1l1 28h1l1 9-1 1h-40v-3h37z" fill="#E3DFD9"/>
<path transform="translate(1408,1041)" d="m0 0h33v1l-6 1h7l5 1v1h-37v36h-1v-37l3-1z" fill="#E3DFD9"/>
<path transform="translate(1020,904)" d="m0 0h16l10 5 1 2-6-2-7-2h-10l-13 4-7 6-4 7h-2l1-4 4-6 7-6z" fill="#497C84"/>
<path transform="translate(626,1087)" d="m0 0h2l1 51-1 3h-2z" fill="#477C85"/>
<path transform="translate(604,1275)" d="m0 0h10v1l30 1v1l-36 1v21l-1 6h-1z" fill="#E3DFD9"/>
<path transform="translate(3)" d="m0 0h6v17l-1 8-2-4-4-16z" fill="#F9F9F8"/>
<path transform="translate(1428,1086)" d="m0 0h4l-1 30-3 1z" fill="#E4E0DA"/>
<path transform="translate(1028,1009)" d="m0 0h1l1 53-7-1 2-2 1-13 1-1z" fill="#F0EEEB"/>
<path transform="translate(1034,907)" d="m0 0 7 1 8 5 6 9-1 2-9-10-7-5z" fill="#E3DFD9"/>
<path transform="translate(1410,1315)" d="m0 0h16l-1 3h-15z" fill="#E9E6E2"/>
<path transform="translate(647,1310)" d="m0 0h1v8h-8l-6-1v-2h12z" fill="#E3DFD9"/>
<path transform="translate(648,1060)" d="m0 0h13l-1 3h-11z" fill="#E9E6E2"/>
<path transform="translate(1408,1303)" d="m0 0h1l1 12 2 2-5 1v-10z" fill="#FDFCFC"/>
</svg>
